<?xml version="1.0" standalone="no"?>
<!DOCTYPE svg PUBLIC "-//W3C//DTD SVG 20010904//EN"
 "http://www.w3.org/TR/2001/REC-SVG-20010904/DTD/svg10.dtd">
<svg version="1.0" xmlns="http://www.w3.org/2000/svg"
 width="1536.000000pt" height="1024.000000pt" viewBox="0 0 1536.000000 1024.000000"
 preserveAspectRatio="xMidYMid meet">

<g transform="translate(0.000000,1024.000000) scale(0.100000,-0.100000)"
fill="#000000" stroke="none">
<path d="M7550 7293 c-85 -59 -846 -579 -993 -679 -69 -47 -71 -68 -8 -72 61
-5 80 2 124 42 20 19 37 33 37 30 0 -2 44 26 98 63 53 37 210 144 347 238 138
94 307 210 377 258 l127 86 198 -134 c266 -180 660 -450 791 -541 56 -39 69
-44 117 -44 48 0 55 3 55 19 0 11 -9 23 -20 26 -11 3 -20 11 -20 17 0 5 -7 8
-15 4 -8 -3 -14 0 -12 7 1 7 -6 11 -15 11 -10 -1 -16 2 -13 6 2 4 -19 23 -48
43 -28 19 -126 86 -217 149 -91 62 -212 145 -269 183 -57 39 -197 134 -311
213 -115 78 -214 142 -222 142 -7 -1 -56 -31 -108 -67z"/>
<path d="M6707 6533 c-4 -3 -7 -286 -7 -628 0 -470 3 -624 12 -633 9 -9 234
-12 949 -12 787 0 938 2 948 14 17 20 21 1240 4 1257 -7 7 -23 8 -42 4 l-31
-7 0 -594 0 -594 -877 2 -876 3 2 577 c2 406 -1 583 -9 597 -10 20 -58 30 -73
14z"/>
<path d="M7335 6481 c-63 -20 -127 -77 -161 -143 -40 -77 -24 -279 30 -368 12
-19 28 -48 36 -65 38 -77 290 -285 327 -270 9 3 11 0 7 -7 -5 -8 -2 -9 10 -5
10 4 15 3 11 -3 -11 -17 62 -42 85 -30 23 13 27 22 5 14 -13 -5 -15 39 -15
361 0 319 -2 366 -15 362 -8 -4 -17 -2 -20 4 -4 5 -3 9 2 8 20 -3 25 2 13 16
-7 8 -16 12 -21 9 -5 -3 -6 2 -3 10 3 8 -3 19 -15 25 -11 6 -32 22 -47 36 -21
20 -29 22 -45 12 -14 -9 -21 -9 -31 2 -11 12 -10 13 5 8 27 -10 20 8 -8 21
-27 13 -116 14 -150 3z m206 -54 c-6 -8 -7 -18 -3 -23 4 -4 -1 -2 -10 5 -19
14 -25 26 -8 16 6 -3 10 -1 10 4 0 6 5 11 11 11 8 0 9 -4 0 -13z"/>
<path d="M7740 6410 c-9 -6 -10 -10 -3 -10 6 0 15 5 18 10 8 12 4 12 -15 0z"/>
<path d="M3584 4939 c-67 -26 -132 -83 -169 -150 l-30 -54 0 -330 0 -330 27
-51 c30 -57 87 -112 150 -146 l43 -23 4070 0 4070 0 50 23 c66 31 139 109 165
178 18 51 20 77 20 344 0 325 -3 347 -70 435 -26 35 -58 62 -101 85 l-64 35
-4055 2 c-4020 2 -4055 2 -4106 -18z m488 -269 c20 -6 46 -19 58 -28 22 -17
22 -19 6 -49 -22 -43 -28 -45 -67 -26 -49 24 -141 23 -176 -3 -44 -32 -63 -80
-63 -159 1 -160 83 -226 222 -175 l61 22 19 -23 c28 -37 19 -61 -36 -88 -73
-37 -181 -36 -258 2 -67 33 -113 94 -124 164 -11 77 0 204 23 248 28 53 72 93
119 110 46 17 164 19 216 5z m542 -24 c87 -51 135 -165 122 -289 -11 -108 -66
-186 -155 -225 -49 -21 -174 -20 -224 2 -57 25 -114 82 -134 134 -23 60 -24
210 -1 262 24 55 68 101 123 127 43 21 61 24 136 21 72 -3 93 -8 133 -32z
m606 9 c42 -25 44 -33 21 -71 l-19 -31 -60 20 c-107 34 -195 3 -223 -80 -18
-56 -15 -155 7 -199 28 -56 64 -78 127 -78 29 1 63 7 76 13 19 11 22 19 19 64
l-3 52 -51 3 c-51 3 -52 4 -59 39 -3 19 -2 40 3 45 5 5 56 7 113 6 l104 -3 0
-130 0 -130 -59 -29 c-49 -25 -70 -30 -135 -30 -95 0 -142 16 -197 66 -55 51
-78 116 -78 223 0 65 4 90 26 136 28 62 77 107 135 126 59 19 211 12 253 -12z
m442 7 c17 -16 188 -526 180 -534 -5 -5 -31 -8 -58 -6 l-49 3 -21 59 -21 59
-98 -2 c-55 -1 -102 -4 -106 -6 -3 -3 -12 -26 -19 -52 -14 -57 -21 -63 -82
-63 -38 0 -48 4 -48 16 0 9 27 96 61 193 34 97 72 211 85 253 14 43 32 82 42
88 17 11 121 4 134 -8z m339 8 c28 0 39 -14 147 -178 l117 -178 -3 177 -4 177
41 7 c22 4 49 4 61 0 20 -6 20 -12 18 -278 l-3 -272 -52 -3 c-45 -3 -54 0 -66
20 -8 13 -63 97 -121 187 l-106 164 0 -187 0 -186 -55 0 -55 0 0 274 c0 281 1
292 38 280 8 -2 27 -4 43 -4z m781 0 c20 -6 46 -19 58 -28 22 -18 22 -19 6
-50 -19 -37 -19 -37 -76 -17 -61 22 -122 19 -154 -6 -53 -42 -28 -76 84 -114
114 -39 155 -67 175 -120 48 -125 -41 -218 -210 -219 -68 -1 -89 3 -137 27
-63 31 -69 44 -37 88 l20 29 42 -21 c23 -12 69 -24 103 -27 57 -4 65 -2 88 21
14 14 26 33 26 42 0 29 -47 63 -117 84 -125 37 -177 88 -176 172 1 63 23 96
83 127 49 24 155 30 222 12z m930 -19 c64 -31 91 -83 86 -165 -7 -116 -77
-169 -228 -172 l-85 -2 -3 -96 -3 -96 -54 0 -55 0 0 274 c0 210 3 276 13 280
6 3 73 4 148 2 115 -3 144 -7 181 -25z m281 20 c4 -1 7 -102 7 -226 l0 -225
114 0 113 0 6 -42 c3 -24 2 -46 -2 -51 -4 -4 -84 -6 -177 -5 l-169 3 -3 269
c-2 209 1 272 10 278 7 5 31 6 53 4 22 -3 43 -5 48 -5z m574 3 c25 -7 22 1
132 -314 44 -124 76 -229 71 -233 -4 -5 -31 -7 -60 -5 l-53 3 -21 60 c-20 56
-23 60 -51 59 -17 -1 -62 -2 -102 -3 l-71 -1 -19 -57 -20 -58 -58 -3 -58 -3 6
29 c3 15 45 139 93 275 58 163 93 248 103 250 25 7 84 7 108 1z m624 -15 c55
-24 61 -41 28 -83 -20 -25 -21 -26 -52 -9 -45 23 -144 23 -179 0 -41 -28 -61
-80 -61 -166 -1 -160 72 -218 213 -171 l64 21 18 -23 c10 -13 18 -31 18 -41 0
-46 -157 -89 -248 -67 -76 18 -129 61 -160 128 -22 48 -26 72 -27 147 0 136
42 220 130 262 68 31 185 32 256 2z m392 11 l97 0 0 -45 0 -45 -120 0 -120 0
0 -65 0 -65 105 0 105 0 0 -45 0 -45 -105 0 -105 0 0 -70 0 -69 123 -3 c120
-3 122 -3 125 -27 2 -12 1 -34 -2 -47 l-6 -24 -173 2 -172 3 -3 269 c-2 209 1
272 10 278 7 5 42 7 78 4 36 -3 109 -6 163 -6z m785 -10 c23 -10 45 -26 48
-34 9 -23 -27 -78 -46 -70 -91 38 -158 39 -206 1 -38 -29 -54 -76 -54 -156 0
-89 22 -146 64 -168 40 -22 122 -21 165 1 40 21 55 16 75 -22 14 -28 14 -31
-7 -49 -59 -54 -200 -63 -290 -19 -93 45 -130 118 -130 257 1 131 47 218 138
260 56 26 184 26 243 -1z m501 -6 c88 -44 134 -136 133 -264 -1 -120 -47 -201
-140 -247 -100 -49 -227 -35 -302 33 -107 97 -116 325 -17 433 68 73 225 95
326 45z m425 -97 c19 -62 45 -146 57 -187 l21 -75 49 179 c27 98 52 182 55
187 3 5 36 9 74 9 l69 0 5 -32 c3 -18 10 -94 16 -168 6 -74 16 -179 21 -234 5
-54 9 -102 9 -108 0 -5 -24 -8 -52 -6 l-53 3 -13 150 c-7 83 -15 170 -18 195
l-6 45 -30 -100 c-16 -55 -41 -140 -55 -188 l-26 -88 -46 3 -46 3 -28 95 c-16
52 -40 134 -55 182 -14 48 -27 86 -28 85 -3 -3 -34 -336 -34 -366 0 -19 -6
-21 -55 -21 -46 0 -55 3 -55 18 0 10 11 130 25 266 14 136 25 252 25 256 0 12
25 15 86 12 l54 -4 34 -111z m-4070 -143 c11 -4 16 -19 16 -45 l0 -39 -130 0
-130 0 0 38 c0 21 3 42 7 45 8 9 216 9 237 1z m2647 -174 c4 0 15 -13 24 -29
19 -37 6 -76 -30 -93 -52 -24 -107 30 -86 85 11 28 46 49 69 41 8 -2 18 -4 23
-4z"/>
<path d="M4425 4578 c-62 -22 -89 -63 -100 -148 -12 -104 32 -190 107 -210
102 -28 185 47 187 170 2 98 -38 168 -107 188 -46 14 -47 14 -87 0z"/>
<path d="M5586 4560 c-2 -8 -16 -54 -31 -103 -14 -48 -28 -94 -31 -102 -5 -12
6 -15 65 -15 39 0 71 3 71 8 -2 27 -69 224 -74 212z"/>
<path d="M7482 4498 l3 -83 71 1 c94 0 124 18 124 75 0 29 -7 47 -25 64 -21
22 -33 25 -100 25 l-76 0 3 -82z"/>
<path d="M8478 4452 l-35 -107 70 -3 c38 -2 71 -1 73 1 4 3 -62 206 -69 213
-2 2 -19 -45 -39 -104z"/>
<path d="M10680 4573 c-68 -35 -100 -125 -81 -227 11 -58 36 -95 82 -119 38
-20 98 -16 136 9 83 54 84 274 1 328 -39 25 -98 29 -138 9z"/>
<path d="M5191 3592 c-41 -7 -70 -32 -77 -67 -10 -57 27 -104 84 -105 47 0 82
37 82 87 -1 58 -38 93 -89 85z m40 -29 c34 -20 39 -64 13 -101 -18 -26 -65
-30 -87 -7 -8 8 -17 12 -19 10 -7 -7 -1 73 7 85 6 9 37 26 53 29 2 1 17 -7 33
-16z"/>
<path d="M8150 3587 c-37 -17 -49 -38 -50 -84 0 -52 28 -83 77 -83 91 0 116
140 30 170 -16 5 -30 10 -31 9 -1 0 -12 -6 -26 -12z m73 -35 c39 -34 9 -112
-44 -112 -66 0 -93 85 -39 122 27 19 54 16 83 -10z"/>
<path d="M9905 3592 c-38 -8 -65 -43 -65 -84 0 -91 116 -124 156 -46 36 70
-17 145 -91 130z m44 -27 c65 -33 46 -125 -26 -125 -63 0 -87 80 -37 119 32
25 28 25 63 6z"/>
<path d="M4356 3568 c24 -78 54 -143 64 -143 7 0 24 29 37 65 14 36 29 71 35
78 12 14 2 30 -11 16 -4 -5 -19 -35 -31 -66 -13 -32 -26 -58 -29 -58 -4 0 -17
29 -29 65 -13 36 -28 65 -34 65 -5 0 -6 -10 -2 -22z"/>
<path d="M4590 3510 c-3 -47 -4 -87 -3 -89 10 -15 13 18 11 90 l-3 84 -5 -85z"/>
<path d="M4727 3570 c-56 -44 -22 -150 47 -150 18 0 41 7 52 15 17 13 15 14
-27 9 -35 -5 -49 -2 -62 11 -20 20 -22 74 -4 99 13 17 57 25 84 15 6 -2 13 1
15 6 1 6 -15 11 -38 13 -29 2 -47 -3 -67 -18z"/>
<path d="M4910 3580 c0 -5 14 -10 30 -10 l30 0 0 -75 c0 -41 3 -75 8 -75 4 0
6 25 5 55 -2 77 5 95 33 95 13 0 24 5 24 10 0 6 -28 10 -65 10 -37 0 -65 -4
-65 -10z"/>
<path d="M5382 3503 c1 -49 3 -71 5 -50 4 33 7 37 32 37 21 0 31 -8 44 -35 9
-19 22 -35 27 -35 6 0 3 13 -7 30 -17 29 -17 31 1 60 16 29 16 33 2 55 -13 20
-25 25 -61 25 l-45 0 2 -87z m69 67 c16 0 20 -6 17 -27 -2 -20 -10 -29 -32
-34 -37 -10 -46 -4 -46 30 0 32 9 44 28 36 7 -3 23 -5 33 -5z"/>
<path d="M5597 3583 c-10 -18 -8 -163 2 -163 7 0 11 32 11 85 0 80 -3 96 -13
78z"/>
<path d="M5751 3568 c-5 -13 -20 -51 -34 -85 -14 -35 -21 -63 -15 -63 5 0 12
9 15 19 4 15 16 20 53 23 44 3 50 1 55 -19 3 -13 10 -23 15 -23 5 0 1 21 -9
48 -10 26 -24 64 -30 85 -14 42 -37 48 -50 15z m43 -50 c9 -17 16 -33 16 -35
0 -1 -16 -3 -35 -3 -39 0 -41 4 -22 43 16 35 22 34 41 -5z"/>
<path d="M5942 3503 l2 -88 5 70 6 69 25 -30 c14 -16 36 -47 50 -67 14 -20 28
-37 33 -37 4 0 6 39 5 88 -2 75 -2 78 -5 25 -2 -35 -7 -63 -12 -63 -4 0 -27
27 -52 60 -24 32 -47 59 -51 60 -5 0 -7 -39 -6 -87z"/>
<path d="M6300 3505 c0 -50 4 -85 10 -85 6 0 10 18 10 40 l0 40 50 0 50 0 0
-40 c0 -22 5 -40 10 -40 6 0 10 35 10 85 0 50 -4 85 -10 85 -5 0 -10 -16 -10
-35 0 -34 -1 -35 -40 -35 -22 0 -43 -1 -47 -2 -5 -2 -9 14 -11 35 -6 71 -22
37 -22 -48z"/>
<path d="M6555 3565 c-53 -53 -16 -145 58 -145 22 0 41 8 55 23 25 26 38 72
23 81 -5 4 -8 13 -5 20 8 20 -35 46 -74 46 -22 0 -41 -8 -57 -25z m102 -11
c46 -46 13 -118 -52 -112 -62 6 -73 96 -15 125 34 17 37 17 67 -13z"/>
<path d="M6790 3505 l0 -85 50 0 c28 0 50 5 50 10 0 6 -18 10 -40 10 l-40 0 0
75 c0 43 -4 75 -10 75 -6 0 -10 -35 -10 -85z"/>
<path d="M6980 3505 c0 -50 4 -85 10 -85 6 0 10 35 10 85 0 50 -4 85 -10 85
-6 0 -10 -35 -10 -85z"/>
<path d="M7100 3504 l0 -87 52 6 c62 8 87 33 88 89 0 49 -36 78 -96 78 l-44 0
0 -86z m108 48 c17 -22 15 -72 -5 -94 -9 -10 -30 -18 -50 -18 l-33 0 0 70 0
71 38 -7 c20 -3 43 -13 50 -22z"/>
<path d="M7368 3573 c-3 -10 -17 -48 -31 -85 -15 -38 -21 -68 -16 -68 6 0 13
9 16 20 4 16 14 20 53 20 41 0 49 -3 55 -22 3 -13 8 -18 11 -12 3 6 -8 45 -24
85 -29 73 -55 97 -64 62z m45 -58 l17 -35 -35 0 c-38 0 -41 6 -23 45 15 33 21
32 41 -10z"/>
<path d="M7520 3584 c0 -3 14 -26 30 -51 19 -28 30 -57 31 -81 0 -34 1 -35 10
-13 5 14 8 30 5 36 -2 7 9 32 25 56 30 45 35 59 21 59 -4 0 -16 -16 -26 -35
-11 -19 -23 -35 -27 -35 -4 0 -17 16 -29 35 -19 31 -40 46 -40 29z"/>
<path d="M7865 3558 c2 -18 4 -58 5 -88 3 -53 3 -54 9 -15 6 40 6 40 54 43
l47 3 0 -40 c0 -23 5 -41 10 -41 6 0 10 35 10 85 0 50 -4 85 -10 85 -5 0 -10
-16 -10 -35 0 -21 -5 -35 -12 -36 -7 -1 -26 -2 -41 -3 -26 -3 -40 7 -43 29 0
6 -2 18 -2 28 -1 9 -6 17 -11 17 -5 0 -7 -15 -6 -32z"/>
<path d="M8358 3508 c-2 -46 -3 -85 -1 -87 8 -11 13 10 16 62 1 32 5 57 9 57
4 0 17 -23 29 -50 12 -28 27 -49 33 -47 6 2 18 23 27 47 24 66 39 62 39 -9 0
-38 4 -61 11 -61 7 0 9 9 5 23 -3 12 -6 50 -6 85 0 34 -4 62 -10 62 -5 0 -23
-28 -39 -62 l-29 -63 -19 45 c-11 25 -23 53 -26 63 -4 9 -13 17 -21 17 -10 0
-15 -20 -18 -82z"/>
<path d="M8630 3505 l0 -85 55 0 c30 0 55 5 55 10 0 6 -22 10 -48 10 -48 0
-49 0 -44 30 4 28 8 30 44 30 25 0 37 4 33 11 -4 5 -17 9 -28 8 -46 -3 -53 1
-51 29 1 25 4 27 42 27 23 1 44 4 48 8 4 4 -18 7 -49 7 l-57 0 0 -85z"/>
<path d="M8841 3576 c-21 -26 -9 -60 25 -71 48 -16 67 -35 52 -52 -9 -11 -25
-14 -55 -10 -42 4 -58 -5 -27 -17 49 -19 104 4 104 44 0 21 -35 50 -61 50 -9
0 -22 7 -29 15 -24 29 24 54 63 33 15 -8 18 -7 15 4 -7 19 -72 22 -87 4z"/>
<path d="M9160 3505 c0 -50 4 -85 10 -85 6 0 10 35 10 85 0 50 -4 85 -10 85
-6 0 -10 -35 -10 -85z"/>
<path d="M9290 3504 c0 -59 3 -83 11 -78 7 4 9 28 6 65 -3 33 -2 59 2 59 4 0
28 -29 54 -65 26 -36 51 -65 57 -65 6 0 10 35 10 86 0 50 -4 83 -9 79 -6 -3
-8 -13 -6 -23 1 -9 0 -35 -4 -57 l-6 -39 -49 62 c-27 34 -53 62 -57 62 -5 0
-9 -39 -9 -86z"/>
<path d="M9660 3505 l0 -85 50 0 c28 0 50 5 50 10 0 6 -18 10 -40 10 l-40 0 0
75 c0 43 -4 75 -10 75 -6 0 -10 -35 -10 -85z"/>
<path d="M10109 3588 c-6 -17 -3 -168 3 -168 4 0 8 27 8 59 0 33 4 62 8 65 5
3 21 -14 36 -37 41 -64 64 -89 76 -82 13 8 12 165 -1 165 -5 0 -9 -25 -9 -55
0 -30 -4 -55 -10 -55 -5 0 -28 24 -51 53 -37 47 -57 65 -60 55z"/>
<path d="M10350 3505 l0 -85 40 0 c77 0 120 44 105 109 -8 39 -44 61 -100 61
l-45 0 0 -85z m82 66 c10 -1 25 -12 34 -26 13 -20 14 -30 4 -59 -12 -37 -26
-46 -71 -46 l-29 0 0 70 c0 67 1 70 23 66 12 -3 30 -5 39 -5z"/>
<path d="M10623 3578 c-43 -21 -47 -112 -7 -143 28 -21 77 -18 108 6 21 16 26
29 26 63 0 71 -60 106 -127 74z m88 -16 c49 -40 17 -122 -47 -122 -67 0 -85
96 -24 127 34 17 44 16 71 -5z"/>
<path d="M10850 3505 c0 -100 18 -115 22 -19 l3 65 50 -62 c28 -35 56 -64 63
-67 9 -3 12 18 12 82 0 51 -4 86 -10 86 -6 0 -10 -27 -10 -60 0 -33 -4 -60 -8
-60 -4 0 -28 27 -53 60 -24 32 -50 59 -56 60 -10 0 -13 -23 -13 -85z"/>
</g>
</svg>
